<svg width="103" height="102" viewBox="0 0 103 102" fill="none" xmlns="http://www.w3.org/2000/svg">
<path d="M39.2403 7.375H63.8903C69.5598 7.375 73.7518 7.37578 77.068 7.64672C80.3725 7.9167 82.719 8.44996 84.7138 9.46631C88.3241 11.3059 91.2594 14.2412 93.099 17.8516C94.1153 19.8463 94.6486 22.1929 94.9186 25.4973C95.1895 28.8135 95.1903 33.0055 95.1903 38.675V63.325C95.1903 68.9945 95.1895 73.1865 94.9186 76.5027C94.6486 79.8071 94.1153 82.1537 93.099 84.1484C91.2594 87.7588 88.3241 90.6941 84.7138 92.5337C82.719 93.55 80.3725 94.0833 77.068 94.3533C73.7518 94.6242 69.5598 94.625 63.8903 94.625H39.2403C33.5708 94.625 29.3788 94.6242 26.0626 94.3533C22.7582 94.0833 20.4116 93.55 18.4169 92.5337C14.8065 90.6941 11.8712 87.7588 10.0316 84.1484C9.01527 82.1537 8.48201 79.8071 8.21202 76.5027C7.94109 73.1865 7.94031 68.9945 7.94031 63.325V38.675C7.94031 33.0055 7.94109 28.8135 8.21202 25.4973C8.48201 22.1929 9.01527 19.8463 10.0316 17.8516C11.8712 14.2412 14.8065 11.3059 18.4169 9.46631C20.4116 8.44996 22.7582 7.9167 26.0626 7.64672C29.3788 7.37578 33.5708 7.375 39.2403 7.375Z" stroke="white" stroke-width="2"/>
<path d="M34.135 58.4891H33.135V59.4891V71.2664H27.0653V33.1019C28.7914 33.0914 30.514 33.0401 32.2229 32.9892L32.2306 32.989C34.1543 32.9317 36.0607 32.875 37.9653 32.875C44.0637 32.875 50.2329 34.9558 52.3815 40.8679C52.9036 42.3692 53.1791 43.8963 53.1791 45.4913C53.1791 48.6205 52.4707 51.1147 51.1272 53.0439C49.2272 55.7722 46.6333 57.1326 43.6789 57.8153C40.7596 58.49 37.5571 58.4896 34.3782 58.4891C34.2971 58.4891 34.2161 58.4891 34.135 58.4891ZM27.0656 71.7799C27.0656 71.7799 27.0654 71.7783 27.0653 71.7748C27.0656 71.7781 27.0657 71.7798 27.0656 71.7799ZM34.0272 38.4756L33.1722 38.6009V39.4651V52.2805V53.2099L34.0991 53.2778C36.6778 53.4667 39.5155 53.5026 42.1668 52.6253C45.3608 51.6946 47.0666 48.909 47.0722 45.7358C47.1525 42.988 45.6552 40.2677 42.9872 39.2239C40.3219 38.1194 36.7326 38.0792 34.0272 38.4756ZM59.0946 70.3463V64.9372L72.6257 63.8051C72.6226 62.2245 71.3061 61.2672 70.3113 60.7311C69.4866 60.2867 68.528 59.9493 67.8834 59.7225C67.7049 59.6597 67.5505 59.6054 67.4297 59.5596L67.4207 59.5561L67.4115 59.5529C65.6188 58.9129 63.9183 58.0262 62.3566 56.9167C60.3189 55.4629 59.0602 53.1484 59.0945 50.6217L59.0946 50.6139L59.0946 50.6061C59.0886 47.7112 60.4355 45.6401 62.4381 44.2557C64.475 42.8475 67.2014 42.1521 69.8298 42.1515L69.8378 42.1515C72.3387 42.1308 74.8856 42.3163 77.0683 43.2193V48.4854C76.094 48.042 75.0754 47.7057 74.0294 47.483C73.2161 47.292 71.1536 46.8477 69.2582 46.8858C68.3182 46.9047 67.2922 47.0426 66.4685 47.4892C66.0428 47.7201 65.6497 48.0452 65.3657 48.4956C65.0789 48.9505 64.9383 49.4781 64.9379 50.0548L64.9379 50.0704L64.9383 50.0859C64.9834 51.5682 66.1668 52.4974 67.1004 53.0388C67.8758 53.4885 68.7761 53.8351 69.3956 54.0735C69.5551 54.135 69.6961 54.1892 69.8114 54.2362L69.8374 54.2468L69.8639 54.2559C72.0755 55.0152 74.3389 56.0446 76.0242 57.5028C77.6811 58.9364 78.7522 60.7548 78.7085 63.1786L78.7082 63.1976L78.7086 63.2165C78.7698 66.2928 77.3369 68.4136 75.2041 69.8101C73.0283 71.2347 70.1162 71.8986 67.3746 71.8989L67.3644 71.899C64.5268 71.9284 61.6258 71.4965 59.0946 70.3463Z" stroke="white" stroke-width="2"/>
</svg>
