<svg width="89" height="90" viewBox="0 0 89 90" fill="none" xmlns="http://www.w3.org/2000/svg">
<path d="M87.7623 74.75C87.7623 82.3841 81.5477 88.625 73.9686 88.625H14.7937C7.21462 88.625 1 82.3841 1 74.75V15.25C1 7.61586 7.21462 1.375 14.7937 1.375H73.9686C81.5477 1.375 87.7623 7.61586 87.7623 15.25V74.75Z" stroke="white" stroke-width="2"/>
<path d="M47.9054 70.8333H25.1194V20.7708H49.2832C53.776 20.7708 57.2676 21.8007 59.843 23.7731C62.3404 25.6857 63.6571 28.5809 63.6571 32.6771C63.6571 35.1339 63.0623 37.1753 61.9171 38.8501C60.761 40.541 59.0925 41.8858 56.8658 42.8414L56.2602 43.1013V43.7604V43.9062V44.7142L57.0502 44.8839C60.0312 45.5243 62.2177 46.9173 63.691 49.0271C65.1896 51.1878 65.9776 53.9226 65.9776 57.3229C65.9776 59.2439 65.637 61.0241 64.9649 62.6594L64.9638 62.6621C64.3032 64.2828 63.2736 65.6806 61.8442 66.8626C60.4131 68.0461 58.5635 69.0128 56.2362 69.7415C53.9356 70.4618 51.1695 70.8333 47.9054 70.8333ZM32.1842 41.5729V42.5729H33.1842H47.9779C50.3537 42.5729 52.4107 41.8982 54.0708 40.4626C55.7866 38.979 56.5923 36.8968 56.5923 34.3396C56.5923 31.5839 55.9101 29.3636 54.2663 28.0229C52.7177 26.7599 50.5732 26.1937 47.9779 26.1937H33.1842H32.1842V27.1937V41.5729ZM32.1842 64.3958V65.3958H33.1842H49.2107C52.1329 65.3958 54.5591 64.6361 56.309 62.9634C58.0798 61.2996 58.9129 58.9661 58.9129 56.1416C58.9129 53.3541 58.0898 51.0871 56.2946 49.4522C54.5161 47.8327 52.1259 47.1208 49.2107 47.1208H33.1842H32.1842V48.1208V64.3958Z" stroke="white" stroke-width="2"/>
</svg>
