<svg width="45" height="45" viewBox="0 0 45 45" fill="none" xmlns="http://www.w3.org/2000/svg">
<path fill-rule="evenodd" clip-rule="evenodd" d="M4.92188 4.21875C4.53355 4.21875 4.21875 4.53355 4.21875 4.92188V40.0781C4.21875 40.4665 4.53355 40.7812 4.92188 40.7812H40.0781C40.4665 40.7812 40.7812 40.4665 40.7812 40.0781V4.92188C40.7812 4.53355 40.4665 4.21875 40.0781 4.21875H4.92188ZM0 4.92188C0 2.2036 2.2036 0 4.92188 0H40.0781C42.7964 0 45 2.2036 45 4.92188V40.0781C45 42.7964 42.7964 45 40.0781 45H4.92188C2.2036 45 0 42.7964 0 40.0781V4.92188ZM25.9303 15.3834C25.1066 16.2072 25.1066 17.5428 25.9303 18.3666L30.0637 22.5L25.9303 26.6334C25.1066 27.4572 25.1066 28.7927 25.9303 29.6165C26.7541 30.4403 28.0897 30.4403 28.9133 29.6165L34.5383 23.9916C35.3621 23.1678 35.3621 21.8322 34.5383 21.0084L28.9133 15.3834C28.0897 14.5597 26.7541 14.5597 25.9303 15.3834ZM19.0697 18.3666C19.8934 17.5428 19.8934 16.2072 19.0697 15.3834C18.2459 14.5597 16.9103 14.5597 16.0866 15.3834L10.4616 21.0084C9.63782 21.8322 9.63782 23.1678 10.4616 23.9916L16.0866 29.6165C16.9103 30.4403 18.2459 30.4403 19.0697 29.6165C19.8934 28.7927 19.8934 27.4572 19.0697 26.6334L14.9362 22.5L19.0697 18.3666Z" fill="white"/>
</svg>
