<svg width="52" height="78" viewBox="0 0 52 78" fill="none" xmlns="http://www.w3.org/2000/svg">
<path d="M26.5653 39C26.5653 32.5107 31.826 27.25 38.3153 27.25C44.8047 27.25 50.0653 32.5107 50.0653 39C50.0653 45.4893 44.8047 50.75 38.3153 50.75C31.826 50.75 26.5653 45.4893 26.5653 39Z" stroke="white" stroke-width="2"/>
<path d="M1.06531 64.5C1.06531 58.0107 6.32596 52.75 12.8153 52.75H24.5653V64.5C24.5653 70.9893 19.3047 76.25 12.8153 76.25C6.32596 76.25 1.06531 70.9893 1.06531 64.5Z" stroke="white" stroke-width="2"/>
<path d="M38.3153 25.25H26.5653V1.75H38.3153C44.8047 1.75 50.0653 7.01065 50.0653 13.5C50.0653 19.9893 44.8047 25.25 38.3153 25.25Z" stroke="white" stroke-width="2"/>
<path d="M12.8153 25.25C6.32596 25.25 1.06531 19.9893 1.06531 13.5C1.06531 7.01065 6.32596 1.75 12.8153 1.75H24.5653V25.25H12.8153Z" stroke="white" stroke-width="2"/>
<path d="M12.8153 50.75C6.32596 50.75 1.06531 45.4893 1.06531 39C1.06531 32.5107 6.32596 27.25 12.8153 27.25H24.5653V50.75H12.8153Z" stroke="white" stroke-width="2"/>
</svg>
