<svg width="103" height="102" viewBox="0 0 103 102" fill="none" xmlns="http://www.w3.org/2000/svg">
<rect x="7.94031" y="7.375" width="87.25" height="87.25" stroke="white" stroke-width="2"/>
<path d="M61.1278 80.6044L67.699 76.2563C68.2139 77.8742 71.4749 81.7167 75.5942 81.7167C79.7134 81.7167 81.6259 79.4668 81.6259 77.9753C81.6259 73.9106 77.4197 72.4775 75.3994 71.7892C75.0701 71.677 74.7988 71.5846 74.6134 71.5038C74.5183 71.4623 74.3745 71.4074 74.1898 71.3368C71.9429 70.4784 63.6533 67.3113 63.6533 58.1309C63.6533 48.0191 73.4119 46.8562 75.6187 46.8562C77.0624 46.8562 84.0043 47.0332 87.4615 53.53L81.0865 57.9792C79.6889 55.1479 77.3668 54.2126 75.9374 54.2126C72.4067 54.2126 71.6711 56.8011 71.6711 57.9792C71.6711 61.2853 75.5071 62.7672 78.7462 64.0184C79.5936 64.3457 80.4002 64.6573 81.0865 64.9816C84.6172 66.6501 89.8153 69.3802 89.8153 77.9753C89.8153 82.2803 86.2045 89.25 77.1143 89.25C64.9038 89.25 61.6672 81.9189 61.1278 80.6044Z" stroke="white" stroke-width="2"/>
<path d="M29.2528 81.4678L36.1017 77.122C36.6384 78.739 38.7237 81.7205 41.7495 81.7205C44.7753 81.7205 46.3239 78.6127 46.3239 77.122V47.8125H54.7471V77.122C54.8834 81.1646 52.6413 89.25 42.7462 89.25C33.6484 89.25 29.8661 83.8429 29.2528 81.4678Z" stroke="white" stroke-width="2"/>
</svg>
