<svg width="45" height="45" viewBox="0 0 45 45" fill="none" xmlns="http://www.w3.org/2000/svg">
<g clip-path="url(#clip0_327_1436)">
<path fill-rule="evenodd" clip-rule="evenodd" d="M39.555 0C33.0283 0.000274997 26.769 2.59322 22.154 7.20844L20.8631 8.49656C19.98 9.37969 19.1306 10.2994 18.3206 11.25H9.30935C8.46892 11.2503 7.64258 11.4657 6.909 11.8758C6.17544 12.2859 5.55911 12.877 5.11873 13.5928L0.309355 21.3947C0.140531 21.6689 0.0367316 21.9781 0.00591339 22.2987C-0.0249047 22.6192 0.0180763 22.9426 0.131562 23.2439C0.245048 23.5453 0.426025 23.8167 0.660625 24.0373C0.895221 24.2579 1.17721 24.4218 1.48498 24.5166L10.2094 27.1997C10.3134 27.3431 10.4315 27.4809 10.5581 27.6075L17.3897 34.4363C17.519 34.5656 17.654 34.6838 17.7975 34.7878L20.4806 43.5122C20.5754 43.8199 20.7393 44.102 20.9599 44.3365C21.1805 44.5711 21.4519 44.7522 21.7532 44.8656C22.0546 44.9792 22.3779 45.0219 22.6985 44.9913C23.019 44.9603 23.3283 44.8566 23.6025 44.6878L31.4044 39.8869C32.1202 39.4464 32.7114 38.8302 33.1214 38.0967C33.5315 37.3629 33.7469 36.5366 33.7472 35.6963V26.6766C34.6978 25.8666 35.6175 25.0172 36.5006 24.1341L37.7888 22.8431C42.4044 18.2293 44.9983 11.9711 45 5.445V4.92188C45 3.61651 44.4814 2.36461 43.5583 1.44158C42.6353 0.518552 41.3834 0 40.0781 0H39.555ZM29.5313 29.8828C29.2838 30.0516 29.0334 30.2147 28.7831 30.375L22.1737 34.6528L23.715 39.6675L29.1966 36.2925C29.2989 36.2295 29.3833 36.1415 29.4418 36.0366C29.5006 35.9317 29.5313 35.8135 29.5313 35.6934V29.8828ZM10.3444 22.8263L14.625 16.2169C14.7881 15.9637 14.954 15.7162 15.12 15.4688H9.30654C9.18642 15.4687 9.06827 15.4995 8.96342 15.558C8.85854 15.6166 8.77042 15.7011 8.70748 15.8034L5.33248 21.2878L10.3444 22.8263ZM25.1381 10.1897C28.9612 6.36725 34.146 4.21954 39.5522 4.21875H40.0753C40.2618 4.21875 40.4407 4.29283 40.5726 4.42468C40.7045 4.55656 40.7784 4.73541 40.7784 4.92188V5.445C40.7787 8.12287 40.2517 10.7746 39.2271 13.2487C38.2028 15.7229 36.7009 17.971 34.8075 19.8647L33.5166 21.1528C31.3791 23.2903 29.025 25.1944 26.4881 26.8341L19.9715 31.0528L13.9444 25.0256L18.1631 18.5091C19.8039 15.9717 21.7082 13.6149 23.8444 11.4778L25.1325 10.1897H25.1381ZM33.75 14.0625C33.75 14.8084 33.4536 15.5238 32.9262 16.0512C32.3989 16.5787 31.6834 16.875 30.9375 16.875C30.1916 16.875 29.4761 16.5787 28.9488 16.0512C28.4212 15.5238 28.125 14.8084 28.125 14.0625C28.125 13.3166 28.4212 12.6012 28.9488 12.0738C29.4761 11.5463 30.1916 11.25 30.9375 11.25C31.6834 11.25 32.3989 11.5463 32.9262 12.0738C33.4536 12.6012 33.75 13.3166 33.75 14.0625ZM10.0125 40.95C10.427 40.5638 10.7594 40.0981 10.99 39.5806C11.2206 39.0631 11.3446 38.5045 11.3545 37.9378C11.3646 37.3714 11.2604 36.8089 11.0482 36.2835C10.836 35.7581 10.5202 35.2811 10.1196 34.8803C9.71897 34.4798 9.24177 34.164 8.71648 33.9519C8.19116 33.7396 7.62849 33.6355 7.06205 33.6454C6.49559 33.6555 5.93694 33.7795 5.41944 34.0099C4.90197 34.2405 4.43619 34.5729 4.04998 34.9875C1.9856 37.0406 1.10529 41.5462 0.815605 43.4334C0.798476 43.5352 0.805921 43.6396 0.837317 43.7377C0.868713 43.8359 0.923152 43.9253 0.996088 43.9982C1.06903 44.0713 1.15835 44.1256 1.2566 44.1571C1.35486 44.1883 1.4592 44.1959 1.56092 44.1788C3.4481 43.8891 7.95373 43.0088 10.0125 40.95Z" fill="white"/>
</g>
<defs>
<clipPath id="clip0_327_1436">
<rect width="45" height="45" fill="white"/>
</clipPath>
</defs>
</svg>
