<svg width="45" height="45" viewBox="0 0 45 45" fill="none" xmlns="http://www.w3.org/2000/svg">
<path d="M17.8174 27.4482C17.3497 26.8345 16.4737 26.712 15.8554 27.1758C15.2472 27.632 15.1235 28.5508 15.582 29.1549C15.6275 29.2132 15.6739 29.2706 15.722 29.3268C15.8039 29.4223 15.9189 29.5496 16.0673 29.698C16.3633 29.994 16.7967 30.3782 17.3693 30.7599C18.5198 31.5269 20.2368 32.2852 22.4999 32.2852C24.763 32.2852 26.48 31.5269 27.6305 30.7599C28.2031 30.3782 28.6365 29.994 28.9325 29.698C29.0809 29.5496 29.1959 29.4223 29.2777 29.3268L29.4257 29.1446C29.8917 28.5232 29.7657 27.6418 29.1444 27.1758C28.5261 26.712 27.6501 26.8345 27.1824 27.4482L27.1799 27.4513C27.1631 27.4723 27.0837 27.5694 26.9438 27.7093C26.7564 27.8966 26.4647 28.157 26.0704 28.4198C25.2873 28.9419 24.104 29.4727 22.4999 29.4727C20.8958 29.4727 19.7125 28.9419 18.9294 28.4198C18.5351 28.157 18.2434 27.8966 18.056 27.7093C17.9728 27.6261 17.8907 27.5404 17.8174 27.4482Z" fill="white"/>
<path d="M30 22.0312C31.2944 22.0312 32.3438 20.9819 32.3438 19.6875C32.3438 18.3931 31.2944 17.3438 30 17.3438C28.7056 17.3438 27.6562 18.3931 27.6562 19.6875C27.6562 20.9819 28.7056 22.0312 30 22.0312Z" fill="white"/>
<path d="M16.875 19.6875C16.875 20.9819 15.8257 22.0312 14.5312 22.0312C13.2368 22.0312 12.1875 20.9819 12.1875 19.6875C12.1875 18.3931 13.2368 17.3438 14.5312 17.3438C15.8257 17.3438 16.875 18.3931 16.875 19.6875Z" fill="white"/>
<path fill-rule="evenodd" clip-rule="evenodd" d="M22.5 1.875C11.1091 1.875 1.875 11.1091 1.875 22.5C1.875 33.8909 11.1091 43.125 22.5 43.125C33.8909 43.125 43.125 33.8909 43.125 22.5C43.125 11.1091 33.8909 1.875 22.5 1.875ZM22.5 5.21484C12.9537 5.21484 5.21484 12.9537 5.21484 22.5C5.21484 32.0463 12.9537 39.7852 22.5 39.7852C32.0463 39.7852 39.7852 32.0463 39.7852 22.5C39.7852 12.9537 32.0463 5.21484 22.5 5.21484Z" fill="white"/>
</svg>
